<svg width="765" height="130" viewBox="0 0 765 130" fill="none" xmlns="http://www.w3.org/2000/svg">
<path fill-rule="evenodd" clip-rule="evenodd" d="M617.798 95.8254L603.278 110.334C562.963 150.649 492.985 122.407 492.985 64.6302C492.985 6.86452 562.963 -21.3888 603.278 18.9141L674.256 89.8832C696.366 112.006 735.175 96.7551 735.175 64.6308C735.175 32.5307 696.379 17.2458 674.244 39.3668L659.723 53.8757L639.283 33.436L653.804 18.9153C694.131 -21.4116 764.097 6.90097 764.097 64.6315C764.097 122.397 694.119 150.65 653.804 110.348L582.826 39.3785C560.715 17.2561 521.906 32.5066 521.906 64.6308C521.906 96.7551 560.715 112.016 582.838 89.8949L597.347 75.386L617.798 95.8254Z" fill="#F2F5F8"/>
<path d="M27.8165 28.5877V51.6867H65.0678V73.1591H27.8165V98.2102H69.9479V120.496H0V6.30193H69.9479V28.5877H27.8165Z" fill="#F2F5F8"/>
<path d="M170.155 6.30193V28.5877H139.898V120.496H112.082V28.5877H81.8253V6.30193H170.155Z" fill="#F2F5F8"/>
<path d="M211.932 28.5877V51.6867H249.183V73.1591H211.932V98.2102H254.063V120.496H184.115V6.30193H254.063V28.5877H211.932Z" fill="#F2F5F8"/>
<path d="M330.357 120.496L306.608 77.3885H299.938V120.496H272.122V6.30193H318.808C327.809 6.30193 335.454 7.8744 341.744 11.0193C348.143 14.1643 352.914 18.5021 356.059 24.0329C359.204 29.4552 360.777 35.5282 360.777 42.2519C360.777 49.8431 358.608 56.621 354.27 62.5856C350.04 68.5501 343.751 72.7795 335.4 75.2738L361.753 120.496H330.357ZM299.938 57.7055H317.181C322.278 57.7055 326.074 56.4583 328.568 53.9641C331.171 51.4698 332.472 47.9453 332.472 43.3906C332.472 39.0527 331.171 35.6367 328.568 33.1424C326.074 30.6481 322.278 29.401 317.181 29.401H299.938V57.7055Z" fill="#F2F5F8"/>
<path d="M480.395 120.496H452.578L406.055 50.06V120.496H378.238V6.30193H406.055L452.578 77.0631V6.30193H480.395V120.496Z" fill="#F2F5F8"/>
</svg>
